<svg xmlns="http://www.w3.org/2000/svg" width="512" height="512" viewBox="0 0 512 512">
  <path d="M209.79,70.53c0,0 139.11,-38.93 208.07,73.35s-1.99,211.84 -1.99,211.84s-45.84,83.18 -155.06,91.78c-109.22,8.6 -169.81,-96.7 -169.81,-96.7s-41.06,-74.17 -21.92,-146.69c0,0 -3.59,74.58 42.25,143.41s131.14,67.35 131.14,67.35s84.9,4.62 139.11,-71.32s17.23,-164.03 17.23,-164.03S363.65,60.69 209.79,70.53z" fill="#2E3192"/>
  <path d="M378.63,208.99c0,0 -8.5,-63.65 -80.78,-94.52s-137.39,22.67 -137.39,22.67s-50.76,37.41 -50.22,113.77s64.04,116.24 64.04,116.24s57.4,30.87 96.73,17.48c0,0 27.9,-5.74 19.13,-35.79c-8.77,-30.05 -31.36,-97.94 -31.36,-97.94s-7.71,-20.09 -17.01,0s-11.43,51.23 -11.43,51.23l17.54,-43.71c0,0 3.99,-4.92 4.25,0.27c0.27,5.19 26.84,94.24 26.84,94.24s7.17,19.12 -15.15,21.03c0,0 -46.5,13.93 -102.04,-37.7S131.23,205.7 131.23,205.7s26.31,-74.29 104.17,-87.68S363.75,171.01 378.63,208.99z" fill="#020202"/>
  <path d="M224.36,200.04a24.52,25.21 0,1 0,49.04 0a24.52,25.21 0,1 0,-49.04 0z" fill="#2E3192"/>
  <path d="M242.97,164.19c-0.4,-0.13 -25.24,-0.68 -32.15,26.36c-6.91,27.04 16.08,42.34 16.08,42.34s7.64,4.34 2.56,-2.83c-5.08,-7.17 -14.55,-15.57 -11.16,-37.59c3.39,-22.02 24.68,-25.4 24.68,-25.4S246.03,165.21 242.97,164.19z" fill="#ED1B32"/>
  <path d="M234.86,145.37c-0.67,-0.19 -42.11,-0.99 -53.64,38.06c-11.53,39.04 26.82,61.13 26.82,61.13s12.74,6.26 4.27,-4.09c-8.48,-10.35 -24.27,-22.48 -18.62,-54.28s41.17,-36.68 41.17,-36.68S239.96,146.85 234.86,145.37z" fill="#ED1B32"/>
  <path d="M263.31,145.37c0.67,-0.19 42.11,-0.99 53.64,38.06s-26.82,61.13 -26.82,61.13s-12.74,6.26 -4.27,-4.09c8.48,-10.35 24.27,-22.48 18.62,-54.28s-41.17,-36.68 -41.17,-36.68S258.21,146.85 263.31,145.37z" fill="#ED1B32"/>
  <path d="M257.36,164.19c0.4,-0.13 25.24,-0.68 32.15,26.36s-16.08,42.34 -16.08,42.34s-7.64,4.34 -2.56,-2.83c5.08,-7.17 14.55,-15.57 11.16,-37.59s-24.68,-25.4 -24.68,-25.4S254.3,165.21 257.36,164.19z" fill="#ED1B32"/>
</svg>
